<svg xmlns="http://www.w3.org/2000/svg" xmlns:xlink="http://www.w3.org/1999/xlink" width="2280" height="380">
    <g transform="translate(-80 -80)">
        <path d="M100 106a6 6 0 0 1 6-6h308a6 6 0 0 1 6 6v48a6 6 0 0 1-6 6H106a6 6 0 0 1-6-6z" stroke="#3a414a"
              stroke-width="3" fill="#fff"/>
        <use xlink:href="#a" transform="matrix(1,0,0,1,112,112) translate(-0.5493827160493652 22.444444444444443)"/>
        <path d="M440 106a6 6 0 0 1 6-6h288a6 6 0 0 1 6 6v48a6 6 0 0 1-6 6H446a6 6 0 0 1-6-6z" stroke="#3a414a"
              stroke-width="3" fill="#fff"/>
        <use xlink:href="#b" transform="matrix(1,0,0,1,452,112) translate(-1.9382716049382225 22.444444444444443)"/>
        <path d="M760 106a6 6 0 0 1 6-6h288a6 6 0 0 1 6 6v48a6 6 0 0 1-6 6H766a6 6 0 0 1-6-6z" stroke="#3a414a"
              stroke-width="3" fill="#fff"/>
        <use xlink:href="#c" transform="matrix(1,0,0,1,772,112) translate(-1.9382716049382225 22.444444444444443)"/>
        <path d="M1080 106a6 6 0 0 1 6-6h168a6 6 0 0 1 6 6v48a6 6 0 0 1-6 6h-168a6 6 0 0 1-6-6z" stroke="#3a414a"
              stroke-width="3" fill="#fff"/>
        <use xlink:href="#d" transform="matrix(1,0,0,1,1092,112) translate(2.845679012345684 22.27777777777778)"/>
        <path d="M1280 106a6 6 0 0 1 6-6h288a6 6 0 0 1 6 6v48a6 6 0 0 1-6 6h-288a6 6 0 0 1-6-6z" stroke="#3a414a"
              stroke-width="3" fill="#fff"/>
        <use xlink:href="#e" transform="matrix(1,0,0,1,1292,112) translate(1.8271604938271935 22.27777777777778)"/>
        <path d="M1600 106a6 6 0 0 1 6-6h268a6 6 0 0 1 6 6v48a6 6 0 0 1-6 6h-268a6 6 0 0 1-6-6z" stroke="#3a414a"
              stroke-width="3" fill="#fff"/>
        <use xlink:href="#f" transform="matrix(1,0,0,1,1612,112) translate(0.43827160493830775 22.27777777777778)"/>
        <path d="M1900 106a6 6 0 0 1 6-6h268a6 6 0 0 1 6 6v48a6 6 0 0 1-6 6h-268a6 6 0 0 1-6-6z" stroke="#3a414a"
              stroke-width="3" fill="#fff"/>
        <use xlink:href="#g" transform="matrix(1,0,0,1,1912,112) translate(0.43827160493830775 22.27777777777778)"/>
        <path d="M2200 106a6 6 0 0 1 6-6h128a6 6 0 0 1 6 6v48a6 6 0 0 1-6 6h-128a6 6 0 0 1-6-6z" stroke="#3a414a"
              stroke-width="3" fill="#fff"/>
        <use xlink:href="#h" transform="matrix(1,0,0,1,2212,112) translate(-2.9876543209876587 22.444444444444443)"/>
        <path d="M780 266a6 6 0 0 1 6-6h248a6 6 0 0 1 6 6v48a6 6 0 0 1-6 6H786a6 6 0 0 1-6-6z" stroke="#3a414a"
              stroke-width="3" fill="#fff"/>
        <use xlink:href="#i" transform="matrix(1,0,0,1,792,272) translate(-0.3333333333333002 22.444444444444443)"/>
        <path d="M260 162.96V204a6 6 0 0 0 6 6h577.03a6 6 0 0 1 6 6v21.94" stroke="#3a414a" stroke-width="3"
              fill="none"/>
        <path d="M261.5 163h-3v-1.54h3z" stroke="#3a414a" stroke-width=".05" fill="#3a414a"/>
        <path d="M849.03 253.7l-4.64-14.26h9.26z" stroke="#3a414a" stroke-width="3" fill="#3a414a"/>
        <path d="M590 162.96V184a6 6 0 0 0 6 6h277.78a6 6 0 0 1 6 6v41.93" stroke="#3a414a" stroke-width="3"
              fill="none"/>
        <path d="M591.5 163h-3v-1.54h3z" stroke="#3a414a" stroke-width=".05" fill="#3a414a"/>
        <path d="M879.78 253.7l-4.64-14.27h9.27z" stroke="#3a414a" stroke-width="3" fill="#3a414a"/>
        <path d="M1170 162.96V204a6 6 0 0 1-6 6H947a6 6 0 0 0-6 6v21.9" stroke="#3a414a" stroke-width="3" fill="none"/>
        <path d="M1171.5 163h-3v-1.54h3z" stroke="#3a414a" stroke-width=".05" fill="#3a414a"/>
        <path d="M941 253.67l-4.65-14.26h9.27z" stroke="#3a414a" stroke-width="3" fill="#3a414a"/>
        <path d="M910 162.96v74.96" stroke="#3a414a" stroke-width="3" fill="none"/>
        <path d="M911.5 163h-3v-1.54h3z" stroke="#3a414a" stroke-width=".05" fill="#3a414a"/>
        <path d="M910 253.68l-4.64-14.26h9.28z" stroke="#3a414a" stroke-width="3" fill="#3a414a"/>
        <path d="M1610 266a6 6 0 0 1 6-6h248a6 6 0 0 1 6 6v48a6 6 0 0 1-6 6h-248a6 6 0 0 1-6-6z" stroke="#3a414a"
              stroke-width="3" fill="#fff"/>
        <use xlink:href="#i" transform="matrix(1,0,0,1,1622,272) translate(-0.3333333333333002 22.444444444444443)"/>
        <path d="M1740 162.96v74.96" stroke="#3a414a" stroke-width="3" fill="none"/>
        <path d="M1741.5 163h-3v-1.54h3z" stroke="#3a414a" stroke-width=".05" fill="#3a414a"/>
        <path d="M1740 253.68l-4.64-14.26h9.28z" stroke="#3a414a" stroke-width="3" fill="#3a414a"/>
        <path d="M1430 162.96V204a6 6 0 0 0 6 6h268.23a6 6 0 0 1 6 6v21.93" stroke="#3a414a" stroke-width="3"
              fill="none"/>
        <path d="M1431.5 163h-3v-1.54h3z" stroke="#3a414a" stroke-width=".05" fill="#3a414a"/>
        <path d="M1710.23 253.7l-4.63-14.27h9.27z" stroke="#3a414a" stroke-width="3" fill="#3a414a"/>
        <path d="M2040 162.96V194a6 6 0 0 1-6 6h-258.12a6 6 0 0 0-6 6v31.9" stroke="#3a414a" stroke-width="3"
              fill="none"/>
        <path d="M2041.5 163h-3v-1.54h3z" stroke="#3a414a" stroke-width=".05" fill="#3a414a"/>
        <path d="M1769.88 253.67l-4.64-14.26h9.28z" stroke="#3a414a" stroke-width="3" fill="#3a414a"/>
        <path d="M2270 162.96V204a6 6 0 0 1-6 6h-457.2a6 6 0 0 0-6 6v21.9" stroke="#3a414a" stroke-width="3"
              fill="none"/>
        <path d="M2271.5 163h-3v-1.54h3z" stroke="#3a414a" stroke-width=".05" fill="#3a414a"/>
        <path d="M1800.8 253.66l-4.63-14.26h9.27z" stroke="#3a414a" stroke-width="3" fill="#3a414a"/>
        <path d="M1220 386a6 6 0 0 1 6-6h248a6 6 0 0 1 6 6v48a6 6 0 0 1-6 6h-248a6 6 0 0 1-6-6z" stroke="#3a414a"
              stroke-width="3" fill="#fff"/>
        <use xlink:href="#i" transform="matrix(1,0,0,1,1232,392) translate(-0.3333333333333002 22.444444444444443)"/>
        <path d="M910 322.96V344a6 6 0 0 0 6 6h377.2a6 6 0 0 1 6 6v1.93" stroke="#3a414a" stroke-width="3" fill="none"/>
        <path d="M911.5 323h-3v-1.54h3z" stroke="#3a414a" stroke-width=".05" fill="#3a414a"/>
        <path d="M1299.2 373.7l-4.64-14.27h9.27z" stroke="#3a414a" stroke-width="3" fill="#3a414a"/>
        <path d="M1740 322.96V344a6 6 0 0 1-6 6h-327.7a6 6 0 0 0-6 6v1.9" stroke="#3a414a" stroke-width="3"
              fill="none"/>
        <path d="M1741.5 323h-3v-1.54h3z" stroke="#3a414a" stroke-width=".05" fill="#3a414a"/>
        <path d="M1400.3 373.67l-4.63-14.27h9.27z" stroke="#3a414a" stroke-width="3" fill="#3a414a"/>
        <defs>
            <path fill="#3a414a"
                  d="M96-169c-40 0-48 33-48 73s9 75 48 75c24 0 41-14 43-38l32 2c-6 37-31 61-74 61-59 0-76-41-82-99-10-93 101-131 147-64 4 7 5 14 7 22l-32 3c-4-21-16-35-41-35"
                  id="j"/>
            <path fill="#3a414a"
                  d="M100-194c62-1 85 37 85 99 1 63-27 99-86 99S16-35 15-95c0-66 28-99 85-99zM99-20c44 1 53-31 53-75 0-43-8-75-51-75s-53 32-53 75 10 74 51 75"
                  id="k"/>
            <path fill="#3a414a"
                  d="M210-169c-67 3-38 105-44 169h-31v-121c0-29-5-50-35-48C34-165 62-65 56 0H25l-1-190h30c1 10-1 24 2 32 10-44 99-50 107 0 11-21 27-35 58-36 85-2 47 119 55 194h-31v-121c0-29-5-49-35-48"
                  id="l"/>
            <path fill="#3a414a"
                  d="M115-194c55 1 70 41 70 98S169 2 115 4C84 4 66-9 55-30l1 105H24l-1-265h31l2 30c10-21 28-34 59-34zm-8 174c40 0 45-34 45-75s-6-73-45-74c-42 0-51 32-51 76 0 43 10 73 51 73"
                  id="m"/>
            <path fill="#3a414a"
                  d="M141-36C126-15 110 5 73 4 37 3 15-17 15-53c-1-64 63-63 125-63 3-35-9-54-41-54-24 1-41 7-42 31l-33-3c5-37 33-52 76-52 45 0 72 20 72 64v82c-1 20 7 32 28 27v20c-31 9-61-2-59-35zM48-53c0 20 12 33 32 33 41-3 63-29 60-74-43 2-92-5-92 41"
                  id="n"/>
            <path fill="#3a414a" d="M59-47c-2 24 18 29 38 22v24C64 9 27 4 27-40v-127H5v-23h24l9-43h21v43h35v23H59v120"
                  id="o"/>
            <path fill="#3a414a"
                  d="M30-248c118-7 216 8 213 122C240-48 200 0 122 0H30v-248zM63-27c89 8 146-16 146-99s-60-101-146-95v194"
                  id="p"/>
            <path fill="#3a414a"
                  d="M100-194c63 0 86 42 84 106H49c0 40 14 67 53 68 26 1 43-12 49-29l28 8c-11 28-37 45-77 45C44 4 14-33 15-96c1-61 26-98 85-98zm52 81c6-60-76-77-97-28-3 7-6 17-6 28h103"
                  id="q"/>
            <path fill="#3a414a" d="M205 0l-28-72H64L36 0H1l101-248h38L239 0h-34zm-38-99l-47-123c-12 45-31 82-46 123h93"
                  id="r"/>
            <path fill="#3a414a" d="M24-231v-30h32v30H24zM24 0v-190h32V0H24" id="s"/>
            <path fill="#3a414a" d="M33 0v-248h34V0H33" id="t"/>
            <path fill="#3a414a" d="M24 0v-261h32V0H24" id="u"/>
            <path fill="#3a414a"
                  d="M117-194c89-4 53 116 60 194h-32v-121c0-31-8-49-39-48C34-167 62-67 57 0H25l-1-190h30c1 10-1 24 2 32 11-22 29-35 61-36"
                  id="v"/>
            <g id="a">
                <use transform="matrix(0.06172839506172839,0,0,0.06172839506172839,0,0)" xlink:href="#j"/>
                <use transform="matrix(0.06172839506172839,0,0,0.06172839506172839,11.11111111111111,0)"
                     xlink:href="#k"/>
                <use transform="matrix(0.06172839506172839,0,0,0.06172839506172839,23.45679012345679,0)"
                     xlink:href="#l"/>
                <use transform="matrix(0.06172839506172839,0,0,0.06172839506172839,41.91358024691358,0)"
                     xlink:href="#m"/>
                <use transform="matrix(0.06172839506172839,0,0,0.06172839506172839,54.25925925925926,0)"
                     xlink:href="#n"/>
                <use transform="matrix(0.06172839506172839,0,0,0.06172839506172839,66.60493827160494,0)"
                     xlink:href="#o"/>
                <use transform="matrix(0.06172839506172839,0,0,0.06172839506172839,72.77777777777777,0)"
                     xlink:href="#p"/>
                <use transform="matrix(0.06172839506172839,0,0,0.06172839506172839,88.76543209876543,0)"
                     xlink:href="#q"/>
                <use transform="matrix(0.06172839506172839,0,0,0.06172839506172839,101.11111111111111,0)"
                     xlink:href="#m"/>
                <use transform="matrix(0.06172839506172839,0,0,0.06172839506172839,113.4567901234568,0)"
                     xlink:href="#r"/>
                <use transform="matrix(0.06172839506172839,0,0,0.06172839506172839,128.27160493827162,0)"
                     xlink:href="#m"/>
                <use transform="matrix(0.06172839506172839,0,0,0.06172839506172839,140.6172839506173,0)"
                     xlink:href="#s"/>
                <use transform="matrix(0.06172839506172839,0,0,0.06172839506172839,145.49382716049382,0)"
                     xlink:href="#t"/>
                <use transform="matrix(0.06172839506172839,0,0,0.06172839506172839,151.66666666666666,0)"
                     xlink:href="#l"/>
                <use transform="matrix(0.06172839506172839,0,0,0.06172839506172839,170.12345679012344,0)"
                     xlink:href="#m"/>
                <use transform="matrix(0.06172839506172839,0,0,0.06172839506172839,182.4691358024691,0)"
                     xlink:href="#u"/>
                <use transform="matrix(0.06172839506172839,0,0,0.06172839506172839,187.34567901234564,0)"
                     xlink:href="#q"/>
                <use transform="matrix(0.06172839506172839,0,0,0.06172839506172839,199.6913580246913,0)"
                     xlink:href="#l"/>
                <use transform="matrix(0.06172839506172839,0,0,0.06172839506172839,218.1481481481481,0)"
                     xlink:href="#q"/>
                <use transform="matrix(0.06172839506172839,0,0,0.06172839506172839,230.49382716049377,0)"
                     xlink:href="#v"/>
                <use transform="matrix(0.06172839506172839,0,0,0.06172839506172839,242.83950617283944,0)"
                     xlink:href="#o"/>
                <use transform="matrix(0.06172839506172839,0,0,0.06172839506172839,249.01234567901227,0)"
                     xlink:href="#n"/>
                <use transform="matrix(0.06172839506172839,0,0,0.06172839506172839,261.35802469135797,0)"
                     xlink:href="#o"/>
                <use transform="matrix(0.06172839506172839,0,0,0.06172839506172839,267.53086419753083,0)"
                     xlink:href="#s"/>
                <use transform="matrix(0.06172839506172839,0,0,0.06172839506172839,272.4074074074074,0)"
                     xlink:href="#k"/>
                <use transform="matrix(0.06172839506172839,0,0,0.06172839506172839,284.75308641975306,0)"
                     xlink:href="#v"/>
            </g>
            <path fill="#3a414a" d="M195 0l-74-108L45 0H8l94-129-87-119h37l69 98 67-98h37l-84 118L233 0h-38" id="w"/>
            <g id="b">
                <use transform="matrix(0.06172839506172839,0,0,0.06172839506172839,0,0)" xlink:href="#j"/>
                <use transform="matrix(0.06172839506172839,0,0,0.06172839506172839,11.11111111111111,0)"
                     xlink:href="#k"/>
                <use transform="matrix(0.06172839506172839,0,0,0.06172839506172839,23.45679012345679,0)"
                     xlink:href="#l"/>
                <use transform="matrix(0.06172839506172839,0,0,0.06172839506172839,41.91358024691358,0)"
                     xlink:href="#m"/>
                <use transform="matrix(0.06172839506172839,0,0,0.06172839506172839,54.25925925925926,0)"
                     xlink:href="#n"/>
                <use transform="matrix(0.06172839506172839,0,0,0.06172839506172839,66.60493827160494,0)"
                     xlink:href="#o"/>
                <use transform="matrix(0.06172839506172839,0,0,0.06172839506172839,72.77777777777777,0)"
                     xlink:href="#p"/>
                <use transform="matrix(0.06172839506172839,0,0,0.06172839506172839,88.76543209876543,0)"
                     xlink:href="#q"/>
                <use transform="matrix(0.06172839506172839,0,0,0.06172839506172839,101.11111111111111,0)"
                     xlink:href="#m"/>
                <use transform="matrix(0.06172839506172839,0,0,0.06172839506172839,113.4567901234568,0)"
                     xlink:href="#w"/>
                <use transform="matrix(0.06172839506172839,0,0,0.06172839506172839,128.27160493827162,0)"
                     xlink:href="#t"/>
                <use transform="matrix(0.06172839506172839,0,0,0.06172839506172839,134.44444444444446,0)"
                     xlink:href="#l"/>
                <use transform="matrix(0.06172839506172839,0,0,0.06172839506172839,152.90123456790124,0)"
                     xlink:href="#m"/>
                <use transform="matrix(0.06172839506172839,0,0,0.06172839506172839,165.2469135802469,0)"
                     xlink:href="#u"/>
                <use transform="matrix(0.06172839506172839,0,0,0.06172839506172839,170.12345679012344,0)"
                     xlink:href="#q"/>
                <use transform="matrix(0.06172839506172839,0,0,0.06172839506172839,182.4691358024691,0)"
                     xlink:href="#l"/>
                <use transform="matrix(0.06172839506172839,0,0,0.06172839506172839,200.9259259259259,0)"
                     xlink:href="#q"/>
                <use transform="matrix(0.06172839506172839,0,0,0.06172839506172839,213.27160493827157,0)"
                     xlink:href="#v"/>
                <use transform="matrix(0.06172839506172839,0,0,0.06172839506172839,225.61728395061724,0)"
                     xlink:href="#o"/>
                <use transform="matrix(0.06172839506172839,0,0,0.06172839506172839,231.79012345679007,0)"
                     xlink:href="#n"/>
                <use transform="matrix(0.06172839506172839,0,0,0.06172839506172839,244.13580246913574,0)"
                     xlink:href="#o"/>
                <use transform="matrix(0.06172839506172839,0,0,0.06172839506172839,250.30864197530857,0)"
                     xlink:href="#s"/>
                <use transform="matrix(0.06172839506172839,0,0,0.06172839506172839,255.1851851851851,0)"
                     xlink:href="#k"/>
                <use transform="matrix(0.06172839506172839,0,0,0.06172839506172839,267.5308641975308,0)"
                     xlink:href="#v"/>
            </g>
            <path fill="#3a414a" d="M137-103V0h-34v-103L8-248h37l75 118 75-118h37" id="x"/>
            <g id="c">
                <use transform="matrix(0.06172839506172839,0,0,0.06172839506172839,0,0)" xlink:href="#j"/>
                <use transform="matrix(0.06172839506172839,0,0,0.06172839506172839,11.11111111111111,0)"
                     xlink:href="#k"/>
                <use transform="matrix(0.06172839506172839,0,0,0.06172839506172839,23.45679012345679,0)"
                     xlink:href="#l"/>
                <use transform="matrix(0.06172839506172839,0,0,0.06172839506172839,41.91358024691358,0)"
                     xlink:href="#m"/>
                <use transform="matrix(0.06172839506172839,0,0,0.06172839506172839,54.25925925925926,0)"
                     xlink:href="#n"/>
                <use transform="matrix(0.06172839506172839,0,0,0.06172839506172839,66.60493827160494,0)"
                     xlink:href="#o"/>
                <use transform="matrix(0.06172839506172839,0,0,0.06172839506172839,72.77777777777777,0)"
                     xlink:href="#p"/>
                <use transform="matrix(0.06172839506172839,0,0,0.06172839506172839,88.76543209876543,0)"
                     xlink:href="#q"/>
                <use transform="matrix(0.06172839506172839,0,0,0.06172839506172839,101.11111111111111,0)"
                     xlink:href="#m"/>
                <use transform="matrix(0.06172839506172839,0,0,0.06172839506172839,113.4567901234568,0)"
                     xlink:href="#x"/>
                <use transform="matrix(0.06172839506172839,0,0,0.06172839506172839,128.27160493827162,0)"
                     xlink:href="#t"/>
                <use transform="matrix(0.06172839506172839,0,0,0.06172839506172839,134.44444444444446,0)"
                     xlink:href="#l"/>
                <use transform="matrix(0.06172839506172839,0,0,0.06172839506172839,152.90123456790124,0)"
                     xlink:href="#m"/>
                <use transform="matrix(0.06172839506172839,0,0,0.06172839506172839,165.2469135802469,0)"
                     xlink:href="#u"/>
                <use transform="matrix(0.06172839506172839,0,0,0.06172839506172839,170.12345679012344,0)"
                     xlink:href="#q"/>
                <use transform="matrix(0.06172839506172839,0,0,0.06172839506172839,182.4691358024691,0)"
                     xlink:href="#l"/>
                <use transform="matrix(0.06172839506172839,0,0,0.06172839506172839,200.9259259259259,0)"
                     xlink:href="#q"/>
                <use transform="matrix(0.06172839506172839,0,0,0.06172839506172839,213.27160493827157,0)"
                     xlink:href="#v"/>
                <use transform="matrix(0.06172839506172839,0,0,0.06172839506172839,225.61728395061724,0)"
                     xlink:href="#o"/>
                <use transform="matrix(0.06172839506172839,0,0,0.06172839506172839,231.79012345679007,0)"
                     xlink:href="#n"/>
                <use transform="matrix(0.06172839506172839,0,0,0.06172839506172839,244.13580246913574,0)"
                     xlink:href="#o"/>
                <use transform="matrix(0.06172839506172839,0,0,0.06172839506172839,250.30864197530857,0)"
                     xlink:href="#s"/>
                <use transform="matrix(0.06172839506172839,0,0,0.06172839506172839,255.1851851851851,0)"
                     xlink:href="#k"/>
                <use transform="matrix(0.06172839506172839,0,0,0.06172839506172839,267.5308641975308,0)"
                     xlink:href="#v"/>
            </g>
            <g id="d">
                <use transform="matrix(0.06172839506172839,0,0,0.06172839506172839,0,0)" xlink:href="#s"/>
                <use transform="matrix(0.06172839506172839,0,0,0.06172839506172839,4.876543209876543,0)"
                     xlink:href="#l"/>
                <use transform="matrix(0.06172839506172839,0,0,0.06172839506172839,23.33333333333333,0)"
                     xlink:href="#m"/>
                <use transform="matrix(0.06172839506172839,0,0,0.06172839506172839,35.679012345679006,0)"
                     xlink:href="#u"/>
                <use transform="matrix(0.06172839506172839,0,0,0.06172839506172839,40.55555555555555,0)"
                     xlink:href="#q"/>
                <use transform="matrix(0.06172839506172839,0,0,0.06172839506172839,52.90123456790123,0)"
                     xlink:href="#l"/>
                <use transform="matrix(0.06172839506172839,0,0,0.06172839506172839,71.35802469135801,0)"
                     xlink:href="#q"/>
                <use transform="matrix(0.06172839506172839,0,0,0.06172839506172839,83.7037037037037,0)"
                     xlink:href="#v"/>
                <use transform="matrix(0.06172839506172839,0,0,0.06172839506172839,96.04938271604938,0)"
                     xlink:href="#o"/>
                <use transform="matrix(0.06172839506172839,0,0,0.06172839506172839,102.22222222222221,0)"
                     xlink:href="#n"/>
                <use transform="matrix(0.06172839506172839,0,0,0.06172839506172839,114.5679012345679,0)"
                     xlink:href="#o"/>
                <use transform="matrix(0.06172839506172839,0,0,0.06172839506172839,120.74074074074073,0)"
                     xlink:href="#s"/>
                <use transform="matrix(0.06172839506172839,0,0,0.06172839506172839,125.61728395061728,0)"
                     xlink:href="#k"/>
                <use transform="matrix(0.06172839506172839,0,0,0.06172839506172839,137.96296296296296,0)"
                     xlink:href="#v"/>
            </g>
            <path fill="#3a414a"
                  d="M212-179c-10-28-35-45-73-45-59 0-87 40-87 99 0 60 29 101 89 101 43 0 62-24 78-52l27 14C228-24 195 4 139 4 59 4 22-46 18-125c-6-104 99-153 187-111 19 9 31 26 39 46"
                  id="y"/>
            <path fill="#3a414a"
                  d="M140-251c81 0 123 46 123 126C263-46 219 4 140 4 59 4 17-45 17-125s42-126 123-126zm0 227c63 0 89-41 89-101s-29-99-89-99c-61 0-89 39-89 99S79-25 140-24"
                  id="z"/>
            <path fill="#3a414a" d="M179-190L93 31C79 59 56 82 12 73V49c39 6 53-20 64-50L1-190h34L92-34l54-156h33"
                  id="A"/>
            <g id="e">
                <use transform="matrix(0.06172839506172839,0,0,0.06172839506172839,0,0)" xlink:href="#j"/>
                <use transform="matrix(0.06172839506172839,0,0,0.06172839506172839,11.11111111111111,0)"
                     xlink:href="#k"/>
                <use transform="matrix(0.06172839506172839,0,0,0.06172839506172839,23.45679012345679,0)"
                     xlink:href="#l"/>
                <use transform="matrix(0.06172839506172839,0,0,0.06172839506172839,41.91358024691358,0)"
                     xlink:href="#m"/>
                <use transform="matrix(0.06172839506172839,0,0,0.06172839506172839,54.25925925925926,0)"
                     xlink:href="#n"/>
                <use transform="matrix(0.06172839506172839,0,0,0.06172839506172839,66.60493827160494,0)"
                     xlink:href="#o"/>
                <use transform="matrix(0.06172839506172839,0,0,0.06172839506172839,72.77777777777777,0)"
                     xlink:href="#p"/>
                <use transform="matrix(0.06172839506172839,0,0,0.06172839506172839,88.76543209876543,0)"
                     xlink:href="#q"/>
                <use transform="matrix(0.06172839506172839,0,0,0.06172839506172839,101.11111111111111,0)"
                     xlink:href="#m"/>
                <use transform="matrix(0.06172839506172839,0,0,0.06172839506172839,113.4567901234568,0)"
                     xlink:href="#r"/>
                <use transform="matrix(0.06172839506172839,0,0,0.06172839506172839,128.27160493827162,0)"
                     xlink:href="#m"/>
                <use transform="matrix(0.06172839506172839,0,0,0.06172839506172839,140.6172839506173,0)"
                     xlink:href="#s"/>
                <use transform="matrix(0.06172839506172839,0,0,0.06172839506172839,145.49382716049382,0)"
                     xlink:href="#y"/>
                <use transform="matrix(0.06172839506172839,0,0,0.06172839506172839,161.48148148148147,0)"
                     xlink:href="#k"/>
                <use transform="matrix(0.06172839506172839,0,0,0.06172839506172839,173.82716049382714,0)"
                     xlink:href="#l"/>
                <use transform="matrix(0.06172839506172839,0,0,0.06172839506172839,192.28395061728392,0)"
                     xlink:href="#m"/>
                <use transform="matrix(0.06172839506172839,0,0,0.06172839506172839,204.6296296296296,0)"
                     xlink:href="#s"/>
                <use transform="matrix(0.06172839506172839,0,0,0.06172839506172839,209.50617283950612,0)"
                     xlink:href="#u"/>
                <use transform="matrix(0.06172839506172839,0,0,0.06172839506172839,214.38271604938265,0)"
                     xlink:href="#q"/>
                <use transform="matrix(0.06172839506172839,0,0,0.06172839506172839,226.72839506172832,0)"
                     xlink:href="#z"/>
                <use transform="matrix(0.06172839506172839,0,0,0.06172839506172839,244.01234567901227,0)"
                     xlink:href="#v"/>
                <use transform="matrix(0.06172839506172839,0,0,0.06172839506172839,256.35802469135797,0)"
                     xlink:href="#u"/>
                <use transform="matrix(0.06172839506172839,0,0,0.06172839506172839,261.2345679012345,0)"
                     xlink:href="#A"/>
            </g>
            <g id="f">
                <use transform="matrix(0.06172839506172839,0,0,0.06172839506172839,0,0)" xlink:href="#j"/>
                <use transform="matrix(0.06172839506172839,0,0,0.06172839506172839,11.11111111111111,0)"
                     xlink:href="#k"/>
                <use transform="matrix(0.06172839506172839,0,0,0.06172839506172839,23.45679012345679,0)"
                     xlink:href="#l"/>
                <use transform="matrix(0.06172839506172839,0,0,0.06172839506172839,41.91358024691358,0)"
                     xlink:href="#m"/>
                <use transform="matrix(0.06172839506172839,0,0,0.06172839506172839,54.25925925925926,0)"
                     xlink:href="#n"/>
                <use transform="matrix(0.06172839506172839,0,0,0.06172839506172839,66.60493827160494,0)"
                     xlink:href="#o"/>
                <use transform="matrix(0.06172839506172839,0,0,0.06172839506172839,72.77777777777777,0)"
                     xlink:href="#p"/>
                <use transform="matrix(0.06172839506172839,0,0,0.06172839506172839,88.76543209876543,0)"
                     xlink:href="#q"/>
                <use transform="matrix(0.06172839506172839,0,0,0.06172839506172839,101.11111111111111,0)"
                     xlink:href="#m"/>
                <use transform="matrix(0.06172839506172839,0,0,0.06172839506172839,113.4567901234568,0)"
                     xlink:href="#w"/>
                <use transform="matrix(0.06172839506172839,0,0,0.06172839506172839,128.27160493827162,0)"
                     xlink:href="#y"/>
                <use transform="matrix(0.06172839506172839,0,0,0.06172839506172839,144.25925925925927,0)"
                     xlink:href="#k"/>
                <use transform="matrix(0.06172839506172839,0,0,0.06172839506172839,156.60493827160494,0)"
                     xlink:href="#l"/>
                <use transform="matrix(0.06172839506172839,0,0,0.06172839506172839,175.06172839506172,0)"
                     xlink:href="#m"/>
                <use transform="matrix(0.06172839506172839,0,0,0.06172839506172839,187.4074074074074,0)"
                     xlink:href="#s"/>
                <use transform="matrix(0.06172839506172839,0,0,0.06172839506172839,192.28395061728392,0)"
                     xlink:href="#u"/>
                <use transform="matrix(0.06172839506172839,0,0,0.06172839506172839,197.16049382716045,0)"
                     xlink:href="#q"/>
                <use transform="matrix(0.06172839506172839,0,0,0.06172839506172839,209.50617283950612,0)"
                     xlink:href="#z"/>
                <use transform="matrix(0.06172839506172839,0,0,0.06172839506172839,226.79012345679007,0)"
                     xlink:href="#v"/>
                <use transform="matrix(0.06172839506172839,0,0,0.06172839506172839,239.13580246913574,0)"
                     xlink:href="#u"/>
                <use transform="matrix(0.06172839506172839,0,0,0.06172839506172839,244.01234567901227,0)"
                     xlink:href="#A"/>
            </g>
            <g id="g">
                <use transform="matrix(0.06172839506172839,0,0,0.06172839506172839,0,0)" xlink:href="#j"/>
                <use transform="matrix(0.06172839506172839,0,0,0.06172839506172839,11.11111111111111,0)"
                     xlink:href="#k"/>
                <use transform="matrix(0.06172839506172839,0,0,0.06172839506172839,23.45679012345679,0)"
                     xlink:href="#l"/>
                <use transform="matrix(0.06172839506172839,0,0,0.06172839506172839,41.91358024691358,0)"
                     xlink:href="#m"/>
                <use transform="matrix(0.06172839506172839,0,0,0.06172839506172839,54.25925925925926,0)"
                     xlink:href="#n"/>
                <use transform="matrix(0.06172839506172839,0,0,0.06172839506172839,66.60493827160494,0)"
                     xlink:href="#o"/>
                <use transform="matrix(0.06172839506172839,0,0,0.06172839506172839,72.77777777777777,0)"
                     xlink:href="#p"/>
                <use transform="matrix(0.06172839506172839,0,0,0.06172839506172839,88.76543209876543,0)"
                     xlink:href="#q"/>
                <use transform="matrix(0.06172839506172839,0,0,0.06172839506172839,101.11111111111111,0)"
                     xlink:href="#m"/>
                <use transform="matrix(0.06172839506172839,0,0,0.06172839506172839,113.4567901234568,0)"
                     xlink:href="#x"/>
                <use transform="matrix(0.06172839506172839,0,0,0.06172839506172839,128.27160493827162,0)"
                     xlink:href="#y"/>
                <use transform="matrix(0.06172839506172839,0,0,0.06172839506172839,144.25925925925927,0)"
                     xlink:href="#k"/>
                <use transform="matrix(0.06172839506172839,0,0,0.06172839506172839,156.60493827160494,0)"
                     xlink:href="#l"/>
                <use transform="matrix(0.06172839506172839,0,0,0.06172839506172839,175.06172839506172,0)"
                     xlink:href="#m"/>
                <use transform="matrix(0.06172839506172839,0,0,0.06172839506172839,187.4074074074074,0)"
                     xlink:href="#s"/>
                <use transform="matrix(0.06172839506172839,0,0,0.06172839506172839,192.28395061728392,0)"
                     xlink:href="#u"/>
                <use transform="matrix(0.06172839506172839,0,0,0.06172839506172839,197.16049382716045,0)"
                     xlink:href="#q"/>
                <use transform="matrix(0.06172839506172839,0,0,0.06172839506172839,209.50617283950612,0)"
                     xlink:href="#z"/>
                <use transform="matrix(0.06172839506172839,0,0,0.06172839506172839,226.79012345679007,0)"
                     xlink:href="#v"/>
                <use transform="matrix(0.06172839506172839,0,0,0.06172839506172839,239.13580246913574,0)"
                     xlink:href="#u"/>
                <use transform="matrix(0.06172839506172839,0,0,0.06172839506172839,244.01234567901227,0)"
                     xlink:href="#A"/>
            </g>
            <g id="h">
                <use transform="matrix(0.06172839506172839,0,0,0.06172839506172839,0,0)" xlink:href="#j"/>
                <use transform="matrix(0.06172839506172839,0,0,0.06172839506172839,11.11111111111111,0)"
                     xlink:href="#k"/>
                <use transform="matrix(0.06172839506172839,0,0,0.06172839506172839,23.45679012345679,0)"
                     xlink:href="#l"/>
                <use transform="matrix(0.06172839506172839,0,0,0.06172839506172839,41.91358024691358,0)"
                     xlink:href="#m"/>
                <use transform="matrix(0.06172839506172839,0,0,0.06172839506172839,54.25925925925926,0)"
                     xlink:href="#s"/>
                <use transform="matrix(0.06172839506172839,0,0,0.06172839506172839,59.135802469135804,0)"
                     xlink:href="#u"/>
                <use transform="matrix(0.06172839506172839,0,0,0.06172839506172839,64.01234567901234,0)"
                     xlink:href="#q"/>
                <use transform="matrix(0.06172839506172839,0,0,0.06172839506172839,76.35802469135803,0)"
                     xlink:href="#z"/>
                <use transform="matrix(0.06172839506172839,0,0,0.06172839506172839,93.64197530864197,0)"
                     xlink:href="#v"/>
                <use transform="matrix(0.06172839506172839,0,0,0.06172839506172839,105.98765432098766,0)"
                     xlink:href="#u"/>
                <use transform="matrix(0.06172839506172839,0,0,0.06172839506172839,110.8641975308642,0)"
                     xlink:href="#A"/>
            </g>
            <g id="i">
                <use transform="matrix(0.06172839506172839,0,0,0.06172839506172839,0,0)" xlink:href="#j"/>
                <use transform="matrix(0.06172839506172839,0,0,0.06172839506172839,11.11111111111111,0)"
                     xlink:href="#k"/>
                <use transform="matrix(0.06172839506172839,0,0,0.06172839506172839,23.45679012345679,0)"
                     xlink:href="#l"/>
                <use transform="matrix(0.06172839506172839,0,0,0.06172839506172839,41.91358024691358,0)"
                     xlink:href="#l"/>
                <use transform="matrix(0.06172839506172839,0,0,0.06172839506172839,60.37037037037037,0)"
                     xlink:href="#k"/>
                <use transform="matrix(0.06172839506172839,0,0,0.06172839506172839,72.71604938271605,0)"
                     xlink:href="#v"/>
                <use transform="matrix(0.06172839506172839,0,0,0.06172839506172839,85.06172839506173,0)"
                     xlink:href="#t"/>
                <use transform="matrix(0.06172839506172839,0,0,0.06172839506172839,91.23456790123457,0)"
                     xlink:href="#l"/>
                <use transform="matrix(0.06172839506172839,0,0,0.06172839506172839,109.69135802469135,0)"
                     xlink:href="#m"/>
                <use transform="matrix(0.06172839506172839,0,0,0.06172839506172839,122.03703703703704,0)"
                     xlink:href="#u"/>
                <use transform="matrix(0.06172839506172839,0,0,0.06172839506172839,126.91358024691357,0)"
                     xlink:href="#q"/>
                <use transform="matrix(0.06172839506172839,0,0,0.06172839506172839,139.25925925925927,0)"
                     xlink:href="#l"/>
                <use transform="matrix(0.06172839506172839,0,0,0.06172839506172839,157.71604938271605,0)"
                     xlink:href="#q"/>
                <use transform="matrix(0.06172839506172839,0,0,0.06172839506172839,170.06172839506172,0)"
                     xlink:href="#v"/>
                <use transform="matrix(0.06172839506172839,0,0,0.06172839506172839,182.4074074074074,0)"
                     xlink:href="#o"/>
                <use transform="matrix(0.06172839506172839,0,0,0.06172839506172839,188.58024691358023,0)"
                     xlink:href="#n"/>
                <use transform="matrix(0.06172839506172839,0,0,0.06172839506172839,200.9259259259259,0)"
                     xlink:href="#o"/>
                <use transform="matrix(0.06172839506172839,0,0,0.06172839506172839,207.09876543209873,0)"
                     xlink:href="#s"/>
                <use transform="matrix(0.06172839506172839,0,0,0.06172839506172839,211.97530864197526,0)"
                     xlink:href="#k"/>
                <use transform="matrix(0.06172839506172839,0,0,0.06172839506172839,224.32098765432093,0)"
                     xlink:href="#v"/>
            </g>
        </defs>
    </g>
</svg>
