<?xml version="1.0" encoding="UTF-8" standalone="no"?>
<!DOCTYPE svg PUBLIC "-//W3C//DTD SVG 1.1//EN"
 "http://www.w3.org/Graphics/SVG/1.1/DTD/svg11.dtd">
<!-- Generated by graphviz version 7.0.5 (20221223.1930)
 -->
<!-- Title: configurations Pages: 1 -->
<svg width="674pt" height="260pt"
 viewBox="0.00 0.00 673.50 260.00" xmlns="http://www.w3.org/2000/svg" xmlns:xlink="http://www.w3.org/1999/xlink">
<g id="graph0" class="graph" transform="scale(1 1) rotate(0) translate(4 256)">
<title>configurations</title>
<polygon fill="white" stroke="none" points="-4,4 -4,-256 669.5,-256 669.5,4 -4,4"/>
<!-- api -->
<g id="node1" class="node">
<title>api</title>
<polygon fill="lightblue" stroke="black" points="292,-252 238,-252 238,-216 292,-216 292,-252"/>
<text text-anchor="middle" x="265" y="-230.3" font-family="Times,serif" font-size="14.00">api</text>
</g>
<!-- commonCompileOnly -->
<g id="node4" class="node">
<title>commonCompileOnly</title>
<polygon fill="lightblue" stroke="black" stroke-width="2" points="140,-144 0,-144 0,-108 140,-108 140,-144"/>
<text text-anchor="middle" x="70" y="-122.3" font-family="Times,serif" font-size="14.00">commonCompileOnly</text>
</g>
<!-- api&#45;&gt;commonCompileOnly -->
<g id="edge3" class="edge">
<title>api:s&#45;&gt;commonCompileOnly:n</title>
<path fill="none" stroke="black" d="M263.85,-204.75C247.87,-133.33 70,-232.24 70,-144"/>
<polygon fill="black" stroke="black" points="260.35,-204.9 264.85,-214.49 267.32,-204.19 260.35,-204.9"/>
</g>
<!-- commonImplementation -->
<g id="node5" class="node">
<title>commonImplementation</title>
<polygon fill="lightblue" stroke="black" stroke-width="2" points="536,-144 384,-144 384,-108 536,-108 536,-144"/>
<text text-anchor="middle" x="460" y="-122.3" font-family="Times,serif" font-size="14.00">commonImplementation</text>
</g>
<!-- api&#45;&gt;commonImplementation -->
<g id="edge7" class="edge">
<title>api:s&#45;&gt;commonImplementation:n</title>
<path fill="none" stroke="black" d="M266.15,-204.75C282.13,-133.33 460,-232.24 460,-144"/>
<polygon fill="black" stroke="black" points="262.68,-204.19 265.15,-214.49 269.65,-204.9 262.68,-204.19"/>
</g>
<!-- compileOnly -->
<g id="node2" class="node">
<title>compileOnly</title>
<polygon fill="lightblue" stroke="black" points="114,-36 26,-36 26,0 114,0 114,-36"/>
<text text-anchor="middle" x="70" y="-14.3" font-family="Times,serif" font-size="14.00">compileOnly</text>
</g>
<!-- implementation -->
<g id="node3" class="node">
<title>implementation</title>
<polygon fill="lightblue" stroke="black" points="474.5,-36 371.5,-36 371.5,0 474.5,0 474.5,-36"/>
<text text-anchor="middle" x="423" y="-14.3" font-family="Times,serif" font-size="14.00">implementation</text>
</g>
<!-- commonCompileOnly&#45;&gt;compileOnly -->
<g id="edge2" class="edge">
<title>commonCompileOnly:s&#45;&gt;compileOnly:n</title>
<path fill="none" stroke="black" d="M70,-96.72C70,-73.54 70,-63.88 70,-36"/>
<polygon fill="black" stroke="black" points="66.5,-96.49 70,-106.49 73.5,-96.49 66.5,-96.49"/>
</g>
<!-- compatDep*CompileOnly -->
<g id="node7" class="node">
<title>compatDep*CompileOnly</title>
<polygon fill="lightblue" stroke="black" stroke-width="2" points="317.5,-36 156.5,-36 156.5,0 317.5,0 317.5,-36"/>
<text text-anchor="middle" x="237" y="-14.3" font-family="Times,serif" font-size="14.00">compatDep*CompileOnly</text>
</g>
<!-- commonCompileOnly&#45;&gt;compatDep*CompileOnly -->
<g id="edge1" class="edge">
<title>commonCompileOnly:s&#45;&gt;compatDep*CompileOnly:n</title>
<path fill="none" stroke="black" d="M71.34,-96.59C87.15,-36.15 237,-112.56 237,-36"/>
<polygon fill="black" stroke="black" points="67.87,-96.16 70.18,-106.5 74.82,-96.97 67.87,-96.16"/>
</g>
<!-- commonImplementation&#45;&gt;implementation -->
<g id="edge6" class="edge">
<title>commonImplementation:s&#45;&gt;implementation:n</title>
<path fill="none" stroke="black" d="M458.59,-96.72C451.84,-71.52 423,-67.76 423,-36"/>
<polygon fill="black" stroke="black" points="455.1,-97.01 459.81,-106.5 462.05,-96.14 455.1,-97.01"/>
</g>
<!-- compatDep*Implementation -->
<g id="node8" class="node">
<title>compatDep*Implementation</title>
<polygon fill="lightblue" stroke="black" stroke-width="2" points="665.5,-36 492.5,-36 492.5,0 665.5,0 665.5,-36"/>
<text text-anchor="middle" x="579" y="-14.3" font-family="Times,serif" font-size="14.00">compatDep*Implementation</text>
</g>
<!-- commonImplementation&#45;&gt;compatDep*Implementation -->
<g id="edge5" class="edge">
<title>commonImplementation:s&#45;&gt;compatDep*Implementation:n</title>
<path fill="none" stroke="black" d="M461.59,-96.84C475.71,-52.71 579,-93.59 579,-36"/>
<polygon fill="black" stroke="black" points="458.16,-96.11 460.21,-106.5 465.09,-97.1 458.16,-96.11"/>
</g>
<!-- compatDep*CompileAndTestOnly -->
<g id="node6" class="node">
<title>compatDep*CompileAndTestOnly</title>
<polygon fill="lightblue" stroke="black" stroke-width="0.5" points="158.5,-108 262,-108 262,-144 158.5,-144 158.5,-108"/>
<polygon fill="lightgreen" stroke="black" stroke-width="0.5" points="262,-108 365.5,-108 365.5,-144 262,-144 262,-108"/>
<polygon fill="none" stroke="black" stroke-width="2" points="365.5,-144 158.5,-144 158.5,-108 365.5,-108 365.5,-144"/>
<text text-anchor="middle" x="262" y="-122.3" font-family="Times,serif" font-size="14.00">compatDep*CompileAndTestOnly</text>
</g>
<!-- compatDep*CompileAndTestOnly&#45;&gt;compatDep*CompileOnly -->
<g id="edge4" class="edge">
<title>compatDep*CompileAndTestOnly:s&#45;&gt;compatDep*CompileOnly:n</title>
<path fill="none" stroke="black" d="M260.93,-96.57C256.14,-72.6 237,-65.64 237,-36"/>
<polygon fill="black" stroke="black" points="257.44,-96.86 261.86,-106.49 264.41,-96.21 257.44,-96.86"/>
</g>
</g>
</svg>
