<?xml version="1.0" encoding="UTF-8" standalone="no"?>
<!DOCTYPE svg PUBLIC "-//W3C//DTD SVG 1.1//EN"
 "http://www.w3.org/Graphics/SVG/1.1/DTD/svg11.dtd">
<!-- Generated by graphviz version 5.0.1 (20220820.1526)
 -->
<!-- Title: configurations Pages: 1 -->
<svg width="1368pt" height="260pt"
 viewBox="0.00 0.00 1367.50 260.00" xmlns="http://www.w3.org/2000/svg" xmlns:xlink="http://www.w3.org/1999/xlink">
<g id="graph0" class="graph" transform="scale(1 1) rotate(0) translate(4 256)">
<title>configurations</title>
<polygon fill="white" stroke="none" points="-4,4 -4,-256 1363.5,-256 1363.5,4 -4,4"/>
<!-- compatDepApiCompileOnly -->
<g id="node1" class="node">
<title>compatDepApiCompileOnly</title>
<polygon fill="none" stroke="black" points="889.5,-252 715.5,-252 715.5,-216 889.5,-216 889.5,-252"/>
<text text-anchor="middle" x="802.5" y="-230.3" font-family="Times,serif" font-size="14.00">compatDepApiCompileOnly</text>
</g>
<!-- commonCompileOnly -->
<g id="node2" class="node">
<title>commonCompileOnly</title>
<polygon fill="none" stroke="black" points="1059.5,-144 919.5,-144 919.5,-108 1059.5,-108 1059.5,-144"/>
<text text-anchor="middle" x="989.5" y="-122.3" font-family="Times,serif" font-size="14.00">commonCompileOnly</text>
</g>
<!-- compatDepApiCompileOnly&#45;&gt;commonCompileOnly -->
<g id="edge1" class="edge">
<title>compatDepApiCompileOnly:s&#45;&gt;commonCompileOnly:n</title>
<path fill="none" stroke="black" d="M802.5,-216C802.5,-130.59 974.47,-224.68 988.58,-154"/>
<polygon fill="black" stroke="black" points="992.07,-154.28 989.5,-144 985.1,-153.64 992.07,-154.28"/>
</g>
<!-- api -->
<g id="node6" class="node">
<title>api</title>
<polygon fill="none" stroke="black" points="765.5,-36 711.5,-36 711.5,0 765.5,0 765.5,-36"/>
<text text-anchor="middle" x="738.5" y="-14.3" font-family="Times,serif" font-size="14.00">api</text>
</g>
<!-- commonCompileOnly&#45;&gt;api -->
<g id="edge5" class="edge">
<title>commonCompileOnly:s&#45;&gt;api:n</title>
<path fill="none" stroke="black" d="M989.5,-108C989.5,4.43 753.94,-142.32 739.22,-46.09"/>
<polygon fill="black" stroke="black" points="742.7,-45.73 738.5,-36 735.72,-46.22 742.7,-45.73"/>
</g>
<!-- compatDepXCompileOnly -->
<g id="node3" class="node">
<title>compatDepXCompileOnly</title>
<polygon fill="none" stroke="black" points="1071.5,-252 907.5,-252 907.5,-216 1071.5,-216 1071.5,-252"/>
<text text-anchor="middle" x="989.5" y="-230.3" font-family="Times,serif" font-size="14.00">compatDepXCompileOnly</text>
</g>
<!-- compatDepXCompileOnly&#45;&gt;commonCompileOnly -->
<g id="edge2" class="edge">
<title>compatDepXCompileOnly:s&#45;&gt;commonCompileOnly:n</title>
<path fill="none" stroke="black" d="M989.5,-216C989.5,-187.62 989.5,-178.12 989.5,-154.02"/>
<polygon fill="black" stroke="black" points="993,-154 989.5,-144 986,-154 993,-154"/>
</g>
<!-- compatDepYCompileOnly -->
<g id="node4" class="node">
<title>compatDepYCompileOnly</title>
<polygon fill="none" stroke="black" points="1253.5,-252 1089.5,-252 1089.5,-216 1253.5,-216 1253.5,-252"/>
<text text-anchor="middle" x="1171.5" y="-230.3" font-family="Times,serif" font-size="14.00">compatDepYCompileOnly</text>
</g>
<!-- compatDepYCompileOnly&#45;&gt;commonCompileOnly -->
<g id="edge3" class="edge">
<title>compatDepYCompileOnly:s&#45;&gt;commonCompileOnly:n</title>
<path fill="none" stroke="black" d="M1171.5,-216C1171.5,-132.75 1004.8,-222.57 990.48,-154.2"/>
<polygon fill="black" stroke="black" points="993.94,-153.62 989.5,-144 986.97,-154.29 993.94,-153.62"/>
</g>
<!-- compileOnly -->
<g id="node5" class="node">
<title>compileOnly</title>
<polygon fill="none" stroke="black" points="1359.5,-252 1271.5,-252 1271.5,-216 1359.5,-216 1359.5,-252"/>
<text text-anchor="middle" x="1315.5" y="-230.3" font-family="Times,serif" font-size="14.00">compileOnly</text>
</g>
<!-- compileOnly&#45;&gt;commonCompileOnly -->
<g id="edge4" class="edge">
<title>compileOnly:s&#45;&gt;commonCompileOnly:n</title>
<path fill="none" stroke="black" d="M1315.5,-216C1315.5,-71.24 1005.22,-281.63 990.07,-154.21"/>
<polygon fill="black" stroke="black" points="993.56,-153.79 989.5,-144 986.57,-154.18 993.56,-153.79"/>
</g>
<!-- compatDepApiImplementation -->
<g id="node7" class="node">
<title>compatDepApiImplementation</title>
<polygon fill="none" stroke="black" points="187,-252 0,-252 0,-216 187,-216 187,-252"/>
<text text-anchor="middle" x="93.5" y="-230.3" font-family="Times,serif" font-size="14.00">compatDepApiImplementation</text>
</g>
<!-- commonImplementation -->
<g id="node8" class="node">
<title>commonImplementation</title>
<polygon fill="none" stroke="black" points="563.5,-144 411.5,-144 411.5,-108 563.5,-108 563.5,-144"/>
<text text-anchor="middle" x="487.5" y="-122.3" font-family="Times,serif" font-size="14.00">commonImplementation</text>
</g>
<!-- compatDepApiImplementation&#45;&gt;commonImplementation -->
<g id="edge6" class="edge">
<title>compatDepApiImplementation:s&#45;&gt;commonImplementation:n</title>
<path fill="none" stroke="black" d="M93.5,-216C93.5,-41.64 471.51,-310.56 487.01,-154.38"/>
<polygon fill="black" stroke="black" points="490.52,-154.15 487.5,-144 483.53,-153.82 490.52,-154.15"/>
</g>
<!-- commonImplementation&#45;&gt;api -->
<g id="edge10" class="edge">
<title>commonImplementation:s&#45;&gt;api:n</title>
<path fill="none" stroke="black" d="M487.5,-108C487.5,4.43 723.06,-142.32 737.78,-46.09"/>
<polygon fill="black" stroke="black" points="741.28,-46.22 738.5,-36 734.3,-45.73 741.28,-46.22"/>
</g>
<!-- compatDepXImplementation -->
<g id="node9" class="node">
<title>compatDepXImplementation</title>
<polygon fill="none" stroke="black" points="381.5,-252 205.5,-252 205.5,-216 381.5,-216 381.5,-252"/>
<text text-anchor="middle" x="293.5" y="-230.3" font-family="Times,serif" font-size="14.00">compatDepXImplementation</text>
</g>
<!-- compatDepXImplementation&#45;&gt;commonImplementation -->
<g id="edge7" class="edge">
<title>compatDepXImplementation:s&#45;&gt;commonImplementation:n</title>
<path fill="none" stroke="black" d="M293.5,-216C293.5,-127.8 471.91,-227.13 486.55,-154.32"/>
<polygon fill="black" stroke="black" points="490.07,-154.28 487.5,-144 483.1,-153.64 490.07,-154.28"/>
</g>
<!-- compatDepYImplementation -->
<g id="node10" class="node">
<title>compatDepYImplementation</title>
<polygon fill="none" stroke="black" points="575.5,-252 399.5,-252 399.5,-216 575.5,-216 575.5,-252"/>
<text text-anchor="middle" x="487.5" y="-230.3" font-family="Times,serif" font-size="14.00">compatDepYImplementation</text>
</g>
<!-- compatDepYImplementation&#45;&gt;commonImplementation -->
<g id="edge8" class="edge">
<title>compatDepYImplementation:s&#45;&gt;commonImplementation:n</title>
<path fill="none" stroke="black" d="M487.5,-216C487.5,-187.62 487.5,-178.12 487.5,-154.02"/>
<polygon fill="black" stroke="black" points="491,-154 487.5,-144 484,-154 491,-154"/>
</g>
<!-- implementation -->
<g id="node11" class="node">
<title>implementation</title>
<polygon fill="none" stroke="black" points="697,-252 594,-252 594,-216 697,-216 697,-252"/>
<text text-anchor="middle" x="645.5" y="-230.3" font-family="Times,serif" font-size="14.00">implementation</text>
</g>
<!-- implementation&#45;&gt;commonImplementation -->
<g id="edge9" class="edge">
<title>implementation:s&#45;&gt;commonImplementation:n</title>
<path fill="none" stroke="black" d="M645.5,-216C645.5,-142.6 502.55,-213.51 488.59,-154.2"/>
<polygon fill="black" stroke="black" points="492.05,-153.57 487.5,-144 485.09,-154.32 492.05,-153.57"/>
</g>
</g>
</svg>
