<?xml version="1.0" encoding="UTF-8" standalone="no"?>
<!DOCTYPE svg PUBLIC "-//W3C//DTD SVG 1.1//EN"
 "http://www.w3.org/Graphics/SVG/1.1/DTD/svg11.dtd">
<!-- Generated by graphviz version 5.0.1 (20220820.1526)
 -->
<!-- Title: sourcesets Pages: 1 -->
<svg width="243pt" height="260pt"
 viewBox="0.00 0.00 243.00 260.00" xmlns="http://www.w3.org/2000/svg" xmlns:xlink="http://www.w3.org/1999/xlink">
<g id="graph0" class="graph" transform="scale(1 1) rotate(0) translate(4 256)">
<title>sourcesets</title>
<polygon fill="white" stroke="none" points="-4,4 -4,-256 239,-256 239,4 -4,4"/>
<!-- test -->
<g id="node1" class="node">
<title>test</title>
<path fill="none" stroke="black" d="M132.5,-252C132.5,-252 102.5,-252 102.5,-252 96.5,-252 90.5,-246 90.5,-240 90.5,-240 90.5,-228 90.5,-228 90.5,-222 96.5,-216 102.5,-216 102.5,-216 132.5,-216 132.5,-216 138.5,-216 144.5,-222 144.5,-228 144.5,-228 144.5,-240 144.5,-240 144.5,-246 138.5,-252 132.5,-252"/>
<text text-anchor="middle" x="117.5" y="-230.3" font-family="Times,serif" font-size="14.00">test</text>
</g>
<!-- main -->
<g id="node2" class="node">
<title>main</title>
<path fill="none" stroke="black" d="M132.5,-180C132.5,-180 102.5,-180 102.5,-180 96.5,-180 90.5,-174 90.5,-168 90.5,-168 90.5,-156 90.5,-156 90.5,-150 96.5,-144 102.5,-144 102.5,-144 132.5,-144 132.5,-144 138.5,-144 144.5,-150 144.5,-156 144.5,-156 144.5,-168 144.5,-168 144.5,-174 138.5,-180 132.5,-180"/>
<text text-anchor="middle" x="117.5" y="-158.3" font-family="Times,serif" font-size="14.00">main</text>
</g>
<!-- test&#45;&gt;main -->
<g id="edge1" class="edge">
<title>test:s&#45;&gt;main:n</title>
<path fill="none" stroke="black" d="M117.5,-216C117.5,-204 117.5,-198.75 117.5,-190.12"/>
<polygon fill="black" stroke="black" points="121,-190 117.5,-180 114,-190 121,-190"/>
</g>
<!-- compatDepX -->
<g id="node3" class="node">
<title>compatDepX</title>
<path fill="none" stroke="black" d="M77,-108C77,-108 12,-108 12,-108 6,-108 0,-102 0,-96 0,-96 0,-84 0,-84 0,-78 6,-72 12,-72 12,-72 77,-72 77,-72 83,-72 89,-78 89,-84 89,-84 89,-96 89,-96 89,-102 83,-108 77,-108"/>
<text text-anchor="middle" x="44.5" y="-86.3" font-family="Times,serif" font-size="14.00">compatDepX</text>
</g>
<!-- main&#45;&gt;compatDepX -->
<g id="edge2" class="edge">
<title>main:s&#45;&gt;compatDepX:n</title>
<path fill="none" stroke="black" d="M117.5,-144C117.5,-111.92 60.1,-136.87 47.1,-117.71"/>
<polygon fill="black" stroke="black" points="50.47,-116.76 44.5,-108 43.7,-118.56 50.47,-116.76"/>
</g>
<!-- compatDepApi -->
<g id="node4" class="node">
<title>compatDepApi</title>
<path fill="none" stroke="black" d="M155.5,-36C155.5,-36 79.5,-36 79.5,-36 73.5,-36 67.5,-30 67.5,-24 67.5,-24 67.5,-12 67.5,-12 67.5,-6 73.5,0 79.5,0 79.5,0 155.5,0 155.5,0 161.5,0 167.5,-6 167.5,-12 167.5,-12 167.5,-24 167.5,-24 167.5,-30 161.5,-36 155.5,-36"/>
<text text-anchor="middle" x="117.5" y="-14.3" font-family="Times,serif" font-size="14.00">compatDepApi</text>
</g>
<!-- main&#45;&gt;compatDepApi -->
<g id="edge3" class="edge">
<title>main:s&#45;&gt;compatDepApi:n</title>
<path fill="none" stroke="black" d="M117.5,-144C117.5,-99.56 117.5,-85.98 117.5,-46.12"/>
<polygon fill="black" stroke="black" points="121,-46 117.5,-36 114,-46 121,-46"/>
</g>
<!-- compatDepY -->
<g id="node5" class="node">
<title>compatDepY</title>
<path fill="none" stroke="black" d="M223,-108C223,-108 158,-108 158,-108 152,-108 146,-102 146,-96 146,-96 146,-84 146,-84 146,-78 152,-72 158,-72 158,-72 223,-72 223,-72 229,-72 235,-78 235,-84 235,-84 235,-96 235,-96 235,-102 229,-108 223,-108"/>
<text text-anchor="middle" x="190.5" y="-86.3" font-family="Times,serif" font-size="14.00">compatDepY</text>
</g>
<!-- main&#45;&gt;compatDepY -->
<g id="edge4" class="edge">
<title>main:s&#45;&gt;compatDepY:n</title>
<path fill="none" stroke="black" d="M117.5,-144C117.5,-111.92 174.9,-136.87 187.9,-117.71"/>
<polygon fill="black" stroke="black" points="191.3,-118.56 190.5,-108 184.53,-116.76 191.3,-118.56"/>
</g>
<!-- compatDepX&#45;&gt;compatDepApi -->
<g id="edge5" class="edge">
<title>compatDepX:s&#45;&gt;compatDepApi:n</title>
<path fill="none" stroke="black" d="M44.5,-72C44.5,-39.92 101.9,-64.87 114.9,-45.71"/>
<polygon fill="black" stroke="black" points="118.3,-46.56 117.5,-36 111.53,-44.76 118.3,-46.56"/>
</g>
<!-- compatDepY&#45;&gt;compatDepApi -->
<g id="edge6" class="edge">
<title>compatDepY:s&#45;&gt;compatDepApi:n</title>
<path fill="none" stroke="black" d="M190.5,-72C190.5,-39.92 133.1,-64.87 120.1,-45.71"/>
<polygon fill="black" stroke="black" points="123.47,-44.76 117.5,-36 116.7,-46.56 123.47,-44.76"/>
</g>
</g>
</svg>
