<svg xmlns="http://www.w3.org/2000/svg" xmlns:xlink="http://www.w3.org/1999/xlink" width="557.5" height="460">
    <g transform="translate(-84 -80)">
        <path d="M181.5 130a30 30 0 0 1 30-30h80a30 30 0 0 1 30 30 30 30 0 0 1-30 30h-80a30 30 0 0 1-30-30z"
              stroke="#3a414a" stroke-width="3" fill="#fff"/>
        <use xlink:href="#a"
             transform="matrix(1,0,0,1,193.50463831493295,112) translate(40.098765432098766 22.27777777777778)"/>
        <path d="M181.5 250a30 30 0 0 1 30-30h80a30 30 0 0 1 30 30 30 30 0 0 1-30 30h-80a30 30 0 0 1-30-30z"
              stroke="#3a414a" stroke-width="3" fill="#fff"/>
        <use xlink:href="#b"
             transform="matrix(1,0,0,1,193.50463831493295,232) translate(33.98765432098766 22.27777777777778)"/>
        <path d="M141.5 370a30 30 0 0 1 30-30h160a30 30 0 0 1 30 30 30 30 0 0 1-30 30h-160a30 30 0 0 1-30-30z"
              stroke="#3a414a" stroke-width="3" fill="#fff"/>
        <use xlink:href="#c"
             transform="matrix(1,0,0,1,153.50463831493295,352) translate(33.86419753086419 22.27777777777778)"/>
        <path d="M251.5 162.83v35.22" stroke="#3a414a" stroke-width="3" fill="none"/>
        <path d="M253 162.86h-3v-1.53h3z" stroke="#3a414a" stroke-width=".05" fill="#3a414a"/>
        <path d="M251.5 213.82l-4.63-14.27h9.27z" stroke="#3a414a" stroke-width="3" fill="#3a414a"/>
        <path d="M251.5 282.83v35.23" stroke="#3a414a" stroke-width="3" fill="none"/>
        <path d="M253 282.86h-3v-1.53h3z" stroke="#3a414a" stroke-width=".05" fill="#3a414a"/>
        <path d="M251.5 333.83l-4.63-14.27h9.27z" stroke="#3a414a" stroke-width="3" fill="#3a414a"/>
        <path d="M401.5 370a30 30 0 0 1 30-30h160a30 30 0 0 1 30 30 30 30 0 0 1-30 30h-160a30 30 0 0 1-30-30z"
              stroke="#3a414a" stroke-width="3" fill="#fff"/>
        <use xlink:href="#d"
             transform="matrix(1,0,0,1,413.50463831493295,352) translate(33.86419753086419 22.27777777777778)"/>
        <path d="M141.5 490a30 30 0 0 1 30-30h160a30 30 0 0 1 30 30 30 30 0 0 1-30 30h-160a30 30 0 0 1-30-30z"
              stroke="#3a414a" stroke-width="3" fill="#fff"/>
        <use xlink:href="#e"
             transform="matrix(1,0,0,1,153.50463831493295,472) translate(25.25308641975309 22.27777777777778)"/>
        <path d="M251.5 402.82v35.24" stroke="#3a414a" stroke-width="3" fill="none"/>
        <path d="M253 402.86h-3v-1.54h3z" stroke="#3a414a" stroke-width=".05" fill="#3a414a"/>
        <path d="M251.5 453.83l-4.63-14.27h9.27z" stroke="#3a414a" stroke-width="3" fill="#3a414a"/>
        <path d="M178.5 250H106a6 6 0 0 0-6 6v168a6 6 0 0 0 6 6h108.92a6 6 0 0 1 6 6v2.13" stroke="#3a414a"
              stroke-width="3" fill="none"/>
        <path d="M180 250l.12 1.5h-1.66v-3h1.66z" stroke="#3a414a" stroke-width=".05" fill="#3a414a"/>
        <path d="M220.92 453.9l-4.63-14.27h9.26z" stroke="#3a414a" stroke-width="3" fill="#3a414a"/>
        <path d="M324.5 250h181a6 6 0 0 1 6 6v62.06" stroke="#3a414a" stroke-width="3" fill="none"/>
        <path d="M324.55 251.5h-1.66l.1-1.5-.1-1.5h1.65z" stroke="#3a414a" stroke-width=".05" fill="#3a414a"/>
        <path d="M511.5 333.83l-4.63-14.27h9.27z" stroke="#3a414a" stroke-width="3" fill="#3a414a"/>
        <path d="M511.5 402.82v21.15a6 6 0 0 1-6 6H285.37a6 6 0 0 0-6 6V438" stroke="#3a414a" stroke-width="3"
              fill="none"/>
        <path d="M513 402.86h-3v-1.54h3z" stroke="#3a414a" stroke-width=".05" fill="#3a414a"/>
        <path d="M279.37 453.76l-4.63-14.26H284z" stroke="#3a414a" stroke-width="3" fill="#3a414a"/>
        <defs>
            <path fill="#3a414a" d="M59-47c-2 24 18 29 38 22v24C64 9 27 4 27-40v-127H5v-23h24l9-43h21v43h35v23H59v120"
                  id="f"/>
            <path fill="#3a414a"
                  d="M100-194c63 0 86 42 84 106H49c0 40 14 67 53 68 26 1 43-12 49-29l28 8c-11 28-37 45-77 45C44 4 14-33 15-96c1-61 26-98 85-98zm52 81c6-60-76-77-97-28-3 7-6 17-6 28h103"
                  id="g"/>
            <path fill="#3a414a"
                  d="M135-143c-3-34-86-38-87 0 15 53 115 12 119 90S17 21 10-45l28-5c4 36 97 45 98 0-10-56-113-15-118-90-4-57 82-63 122-42 12 7 21 19 24 35"
                  id="h"/>
            <g id="a">
                <use transform="matrix(0.06172839506172839,0,0,0.06172839506172839,0,0)" xlink:href="#f"/>
                <use transform="matrix(0.06172839506172839,0,0,0.06172839506172839,6.172839506172839,0)"
                     xlink:href="#g"/>
                <use transform="matrix(0.06172839506172839,0,0,0.06172839506172839,18.51851851851852,0)"
                     xlink:href="#h"/>
                <use transform="matrix(0.06172839506172839,0,0,0.06172839506172839,29.62962962962963,0)"
                     xlink:href="#f"/>
            </g>
            <path fill="#3a414a"
                  d="M210-169c-67 3-38 105-44 169h-31v-121c0-29-5-50-35-48C34-165 62-65 56 0H25l-1-190h30c1 10-1 24 2 32 10-44 99-50 107 0 11-21 27-35 58-36 85-2 47 119 55 194h-31v-121c0-29-5-49-35-48"
                  id="i"/>
            <path fill="#3a414a"
                  d="M141-36C126-15 110 5 73 4 37 3 15-17 15-53c-1-64 63-63 125-63 3-35-9-54-41-54-24 1-41 7-42 31l-33-3c5-37 33-52 76-52 45 0 72 20 72 64v82c-1 20 7 32 28 27v20c-31 9-61-2-59-35zM48-53c0 20 12 33 32 33 41-3 63-29 60-74-43 2-92-5-92 41"
                  id="j"/>
            <path fill="#3a414a" d="M24-231v-30h32v30H24zM24 0v-190h32V0H24" id="k"/>
            <path fill="#3a414a"
                  d="M117-194c89-4 53 116 60 194h-32v-121c0-31-8-49-39-48C34-167 62-67 57 0H25l-1-190h30c1 10-1 24 2 32 11-22 29-35 61-36"
                  id="l"/>
            <g id="b">
                <use transform="matrix(0.06172839506172839,0,0,0.06172839506172839,0,0)" xlink:href="#i"/>
                <use transform="matrix(0.06172839506172839,0,0,0.06172839506172839,18.456790123456788,0)"
                     xlink:href="#j"/>
                <use transform="matrix(0.06172839506172839,0,0,0.06172839506172839,30.80246913580247,0)"
                     xlink:href="#k"/>
                <use transform="matrix(0.06172839506172839,0,0,0.06172839506172839,35.67901234567901,0)"
                     xlink:href="#l"/>
            </g>
            <path fill="#3a414a"
                  d="M96-169c-40 0-48 33-48 73s9 75 48 75c24 0 41-14 43-38l32 2c-6 37-31 61-74 61-59 0-76-41-82-99-10-93 101-131 147-64 4 7 5 14 7 22l-32 3c-4-21-16-35-41-35"
                  id="m"/>
            <path fill="#3a414a"
                  d="M100-194c62-1 85 37 85 99 1 63-27 99-86 99S16-35 15-95c0-66 28-99 85-99zM99-20c44 1 53-31 53-75 0-43-8-75-51-75s-53 32-53 75 10 74 51 75"
                  id="n"/>
            <path fill="#3a414a"
                  d="M115-194c55 1 70 41 70 98S169 2 115 4C84 4 66-9 55-30l1 105H24l-1-265h31l2 30c10-21 28-34 59-34zm-8 174c40 0 45-34 45-75s-6-73-45-74c-42 0-51 32-51 76 0 43 10 73 51 73"
                  id="o"/>
            <path fill="#3a414a"
                  d="M30-248c118-7 216 8 213 122C240-48 200 0 122 0H30v-248zM63-27c89 8 146-16 146-99s-60-101-146-95v194"
                  id="p"/>
            <path fill="#3a414a" d="M195 0l-74-108L45 0H8l94-129-87-119h37l69 98 67-98h37l-84 118L233 0h-38" id="q"/>
            <g id="c">
                <use transform="matrix(0.06172839506172839,0,0,0.06172839506172839,0,0)" xlink:href="#m"/>
                <use transform="matrix(0.06172839506172839,0,0,0.06172839506172839,11.11111111111111,0)"
                     xlink:href="#n"/>
                <use transform="matrix(0.06172839506172839,0,0,0.06172839506172839,23.45679012345679,0)"
                     xlink:href="#i"/>
                <use transform="matrix(0.06172839506172839,0,0,0.06172839506172839,41.91358024691358,0)"
                     xlink:href="#o"/>
                <use transform="matrix(0.06172839506172839,0,0,0.06172839506172839,54.25925925925926,0)"
                     xlink:href="#j"/>
                <use transform="matrix(0.06172839506172839,0,0,0.06172839506172839,66.60493827160494,0)"
                     xlink:href="#f"/>
                <use transform="matrix(0.06172839506172839,0,0,0.06172839506172839,72.77777777777777,0)"
                     xlink:href="#p"/>
                <use transform="matrix(0.06172839506172839,0,0,0.06172839506172839,88.76543209876543,0)"
                     xlink:href="#g"/>
                <use transform="matrix(0.06172839506172839,0,0,0.06172839506172839,101.11111111111111,0)"
                     xlink:href="#o"/>
                <use transform="matrix(0.06172839506172839,0,0,0.06172839506172839,113.4567901234568,0)"
                     xlink:href="#q"/>
            </g>
            <path fill="#3a414a" d="M137-103V0h-34v-103L8-248h37l75 118 75-118h37" id="r"/>
            <g id="d">
                <use transform="matrix(0.06172839506172839,0,0,0.06172839506172839,0,0)" xlink:href="#m"/>
                <use transform="matrix(0.06172839506172839,0,0,0.06172839506172839,11.11111111111111,0)"
                     xlink:href="#n"/>
                <use transform="matrix(0.06172839506172839,0,0,0.06172839506172839,23.45679012345679,0)"
                     xlink:href="#i"/>
                <use transform="matrix(0.06172839506172839,0,0,0.06172839506172839,41.91358024691358,0)"
                     xlink:href="#o"/>
                <use transform="matrix(0.06172839506172839,0,0,0.06172839506172839,54.25925925925926,0)"
                     xlink:href="#j"/>
                <use transform="matrix(0.06172839506172839,0,0,0.06172839506172839,66.60493827160494,0)"
                     xlink:href="#f"/>
                <use transform="matrix(0.06172839506172839,0,0,0.06172839506172839,72.77777777777777,0)"
                     xlink:href="#p"/>
                <use transform="matrix(0.06172839506172839,0,0,0.06172839506172839,88.76543209876543,0)"
                     xlink:href="#g"/>
                <use transform="matrix(0.06172839506172839,0,0,0.06172839506172839,101.11111111111111,0)"
                     xlink:href="#o"/>
                <use transform="matrix(0.06172839506172839,0,0,0.06172839506172839,113.4567901234568,0)"
                     xlink:href="#r"/>
            </g>
            <path fill="#3a414a" d="M205 0l-28-72H64L36 0H1l101-248h38L239 0h-34zm-38-99l-47-123c-12 45-31 82-46 123h93"
                  id="s"/>
            <g id="e">
                <use transform="matrix(0.06172839506172839,0,0,0.06172839506172839,0,0)" xlink:href="#m"/>
                <use transform="matrix(0.06172839506172839,0,0,0.06172839506172839,11.11111111111111,0)"
                     xlink:href="#n"/>
                <use transform="matrix(0.06172839506172839,0,0,0.06172839506172839,23.45679012345679,0)"
                     xlink:href="#i"/>
                <use transform="matrix(0.06172839506172839,0,0,0.06172839506172839,41.91358024691358,0)"
                     xlink:href="#o"/>
                <use transform="matrix(0.06172839506172839,0,0,0.06172839506172839,54.25925925925926,0)"
                     xlink:href="#j"/>
                <use transform="matrix(0.06172839506172839,0,0,0.06172839506172839,66.60493827160494,0)"
                     xlink:href="#f"/>
                <use transform="matrix(0.06172839506172839,0,0,0.06172839506172839,72.77777777777777,0)"
                     xlink:href="#p"/>
                <use transform="matrix(0.06172839506172839,0,0,0.06172839506172839,88.76543209876543,0)"
                     xlink:href="#g"/>
                <use transform="matrix(0.06172839506172839,0,0,0.06172839506172839,101.11111111111111,0)"
                     xlink:href="#o"/>
                <use transform="matrix(0.06172839506172839,0,0,0.06172839506172839,113.4567901234568,0)"
                     xlink:href="#s"/>
                <use transform="matrix(0.06172839506172839,0,0,0.06172839506172839,128.27160493827162,0)"
                     xlink:href="#o"/>
                <use transform="matrix(0.06172839506172839,0,0,0.06172839506172839,140.6172839506173,0)"
                     xlink:href="#k"/>
            </g>
        </defs>
    </g>
</svg>
