<?xml version="1.0" encoding="UTF-8" standalone="no"?>
<!DOCTYPE svg PUBLIC "-//W3C//DTD SVG 1.1//EN"
 "http://www.w3.org/Graphics/SVG/1.1/DTD/svg11.dtd">
<!-- Generated by graphviz version 7.0.5 (20221223.1930)
 -->
<!-- Title: sourcesets Pages: 1 -->
<svg width="188pt" height="260pt"
 viewBox="0.00 0.00 188.00 260.00" xmlns="http://www.w3.org/2000/svg" xmlns:xlink="http://www.w3.org/1999/xlink">
<g id="graph0" class="graph" transform="scale(1 1) rotate(0) translate(4 256)">
<title>sourcesets</title>
<polygon fill="white" stroke="none" points="-4,4 -4,-256 184,-256 184,4 -4,4"/>
<!-- compatDep* -->
<g id="node1" class="node">
<title>compatDep*</title>
<path fill="lightblue" stroke="black" stroke-width="2" d="M129,-180C129,-180 67,-180 67,-180 61,-180 55,-174 55,-168 55,-168 55,-156 55,-156 55,-150 61,-144 67,-144 67,-144 129,-144 129,-144 135,-144 141,-150 141,-156 141,-156 141,-168 141,-168 141,-174 135,-180 129,-180"/>
<text text-anchor="middle" x="98" y="-158.3" font-family="Times,serif" font-size="14.00">compatDep*</text>
</g>
<!-- main -->
<g id="node3" class="node">
<title>main</title>
<path fill="lightblue" stroke="black" d="M42,-108C42,-108 12,-108 12,-108 6,-108 0,-102 0,-96 0,-96 0,-84 0,-84 0,-78 6,-72 12,-72 12,-72 42,-72 42,-72 48,-72 54,-78 54,-84 54,-84 54,-96 54,-96 54,-102 48,-108 42,-108"/>
<text text-anchor="middle" x="27" y="-86.3" font-family="Times,serif" font-size="14.00">main</text>
</g>
<!-- compatDep*&#45;&gt;main -->
<g id="edge1" class="edge">
<title>compatDep*:s&#45;&gt;main:n</title>
<path fill="none" stroke="black" d="M94.58,-133.29C80.39,-116.62 27,-138.68 27,-108"/>
<polygon fill="black" stroke="black" points="91.16,-134.1 97.54,-142.56 97.83,-131.97 91.16,-134.1"/>
</g>
<!-- testCompatDep* -->
<g id="node5" class="node">
<title>testCompatDep*</title>
<path fill="lightgreen" stroke="black" stroke-width="2" d="M168,-108C168,-108 84,-108 84,-108 78,-108 72,-102 72,-96 72,-96 72,-84 72,-84 72,-78 78,-72 84,-72 84,-72 168,-72 168,-72 174,-72 180,-78 180,-84 180,-84 180,-96 180,-96 180,-102 174,-108 168,-108"/>
<text text-anchor="middle" x="126" y="-86.3" font-family="Times,serif" font-size="14.00">testCompatDep*</text>
</g>
<!-- compatDep*&#45;&gt;testCompatDep* -->
<g id="edge5" class="edge">
<title>compatDep*:s&#45;&gt;testCompatDep*:n</title>
<path fill="none" stroke="black" d="M101.89,-133.2C109.59,-124.5 126,-123.52 126,-108"/>
<polygon fill="black" stroke="black" points="98.61,-131.98 98.51,-142.58 105.2,-134.36 98.61,-131.98"/>
</g>
<!-- compatDepApi -->
<g id="node2" class="node">
<title>compatDepApi</title>
<path fill="lightblue" stroke="black" stroke-width="2" d="M100,-252C100,-252 24,-252 24,-252 18,-252 12,-246 12,-240 12,-240 12,-228 12,-228 12,-222 18,-216 24,-216 24,-216 100,-216 100,-216 106,-216 112,-222 112,-228 112,-228 112,-240 112,-240 112,-246 106,-252 100,-252"/>
<text text-anchor="middle" x="62" y="-230.3" font-family="Times,serif" font-size="14.00">compatDepApi</text>
</g>
<!-- compatDepApi&#45;&gt;compatDep* -->
<g id="edge3" class="edge">
<title>compatDepApi:s&#45;&gt;compatDep*:n</title>
<path fill="none" stroke="black" d="M66.13,-205.34C75.59,-195.86 98,-197.85 98,-180"/>
<polygon fill="black" stroke="black" points="62.89,-204 62.55,-214.59 69.42,-206.53 62.89,-204"/>
</g>
<!-- compatDepApi&#45;&gt;main -->
<g id="edge2" class="edge">
<title>compatDepApi:s&#45;&gt;main:n</title>
<path fill="none" stroke="black" d="M60.12,-204.77C56.89,-196.42 50.27,-192.13 46,-180 35.02,-148.78 27,-141.1 27,-108"/>
<polygon fill="black" stroke="black" points="56.64,-205.22 61.75,-214.51 63.55,-204.07 56.64,-205.22"/>
</g>
<!-- test -->
<g id="node4" class="node">
<title>test</title>
<path fill="lightgreen" stroke="black" d="M42,-36C42,-36 12,-36 12,-36 6,-36 0,-30 0,-24 0,-24 0,-12 0,-12 0,-6 6,0 12,0 12,0 42,0 42,0 48,0 54,-6 54,-12 54,-12 54,-24 54,-24 54,-30 48,-36 42,-36"/>
<text text-anchor="middle" x="27" y="-14.3" font-family="Times,serif" font-size="14.00">test</text>
</g>
<!-- main&#45;&gt;test -->
<g id="edge4" class="edge">
<title>main:s&#45;&gt;test:n</title>
<path fill="none" stroke="black" d="M27,-60.55C27,-52.68 27,-47.38 27,-36"/>
<polygon fill="black" stroke="black" points="23.5,-60.49 27,-70.49 30.5,-60.49 23.5,-60.49"/>
</g>
</g>
</svg>
